<?xml version="1.0" encoding="UTF-8" standalone="no"?>
<svg
   width="545.15833pt"
   height="989.32898pt"
   version="1.1"
   viewBox="-263.732 482.637 545.15833 989.32899"
   id="svg1"
   sodipodi:docname="Drawing 10.svg"
   inkscape:export-filename="../fonting/Tigger Hand svg imports/h.svg"
   inkscape:export-xdpi="96"
   inkscape:export-ydpi="96"
   xmlns:inkscape="http://www.inkscape.org/namespaces/inkscape"
   xmlns:sodipodi="http://sodipodi.sourceforge.net/DTD/sodipodi-0.dtd"
   xmlns="http://www.w3.org/2000/svg"
   xmlns:svg="http://www.w3.org/2000/svg"
   xmlns:rdf="http://www.w3.org/1999/02/22-rdf-syntax-ns#"
   xmlns:cc="http://creativecommons.org/ns#"
   xmlns:dc="http://purl.org/dc/elements/1.1/">
  <sodipodi:namedview
     id="namedview1"
     pagecolor="#ffffff"
     bordercolor="#000000"
     borderopacity="0.25"
     inkscape:showpageshadow="2"
     inkscape:pageopacity="0.0"
     inkscape:pagecheckerboard="0"
     inkscape:deskcolor="#d1d1d1"
     inkscape:document-units="pt">
    <inkscape:page
       x="0"
       y="0"
       width="545.15833"
       height="989.32898"
       id="page2"
       margin="0"
       bleed="0" />
  </sodipodi:namedview>
  <!--
	Exported with Concepts: Smarter Sketching
	Version: 3531 on iOS 18.1
	https://concepts.app/
	-->
  <title
     id="title1">8CE43FDD-58A7-4676-A8CB-0596A64137B7</title>
  <desc
     id="desc1">Drawing exported from Concepts: Smarter Sketching</desc>
  <defs
     id="defs1" />
  <path
     id="STROKE_1e8f77c1-203f-4dc3-a19f-7817abf21168"
     opacity="1"
     fill="none"
     stroke="#000000"
     stroke-width="2.514"
     stroke-opacity="1"
     stroke-linecap="round"
     stroke-linejoin="round"
     d="m -198.4427,642.262 -0.644,0.877 q -0.251,0.335 -1.106,2.52 -0.854,2.185 -1.551,4.47 -0.696,2.286 -1.154,4.181 -0.458,1.896 -1.235,5.934 -0.776,4.039 -1.245,8.341 -0.468,4.302 0.681,9.776 l 0.408,0.046 q 0.244,-0.097 0.942,-0.816 0.698,-0.72 1.73,-2.204 1.033,-1.485 1.886,-2.665 0.854,-1.181 1.643,-1.901 0.79,-0.72 1.534,-0.903 0.399,0.326 0.459,0.339 0.06,0.013 0.826,4.132 0.767,4.119 1.11,8.691 l 0.027,0.067 0.169,1.527"
     style="stroke-width:5.028;stroke-dasharray:none" />
  <metadata
     id="metadata1">
    <rdf:RDF>
      <cc:Work
         rdf:about="">
        <dc:title>8CE43FDD-58A7-4676-A8CB-0596A64137B7</dc:title>
      </cc:Work>
    </rdf:RDF>
  </metadata>
</svg>
