<?xml version="1.0" encoding="UTF-8" standalone="no"?>
<!-- Created with Inkscape (http://www.inkscape.org/) -->

<svg
   width="7.9573102mm"
   height="9.7598066mm"
   viewBox="0 0 7.9573102 9.7598066"
   version="1.1"
   id="svg1"
   inkscape:version="1.4 (e7c3feb1, 2024-10-09)"
   sodipodi:docname="e.svg"
   xmlns:inkscape="http://www.inkscape.org/namespaces/inkscape"
   xmlns:sodipodi="http://sodipodi.sourceforge.net/DTD/sodipodi-0.dtd"
   xmlns="http://www.w3.org/2000/svg"
   xmlns:svg="http://www.w3.org/2000/svg">
  <sodipodi:namedview
     id="namedview1"
     pagecolor="#ffffff"
     bordercolor="#000000"
     borderopacity="0.25"
     inkscape:showpageshadow="2"
     inkscape:pageopacity="0.0"
     inkscape:pagecheckerboard="0"
     inkscape:deskcolor="#d1d1d1"
     inkscape:document-units="mm"
     inkscape:zoom="0.93539562"
     inkscape:cx="-341.5667"
     inkscape:cy="297.20045"
     inkscape:current-layer="layer1" />
  <defs
     id="defs1" />
  <g
     inkscape:label="Layer 1"
     inkscape:groupmode="layer"
     id="layer1"
     transform="translate(-195.52708,-69.849999)">
    <path
       id="STROKE_3344f93c-f3fe-4d99-896c-03f2c91ade0c"
       opacity="1"
       fill="none"
       stroke="#000000"
       stroke-width="2.552"
       stroke-opacity="1"
       stroke-linecap="round"
       stroke-linejoin="round"
       d="m 196.42737,75.649699 0.12171,-0.08008 q 0.0903,-0.04269 1.02976,-0.595136 0.93945,-0.55245 1.4665,-0.911225 0.52669,-0.358775 1.01494,-0.778934 0.48789,-0.420158 0.71226,-0.711552 0.22436,-0.291748 0.29668,-0.461434 0.0723,-0.170039 0.0928,-0.328083 0.0201,-0.158045 -0.0293,-0.306211 -0.049,-0.148167 -0.22507,-0.330553 -0.17604,-0.182386 -0.38418,-0.271286 -0.20778,-0.08925 -0.39793,-0.112183 -0.1905,-0.02293 -0.39934,-0.0046 -0.20885,0.01799 -0.50448,0.118887 -0.29527,0.100894 -0.66145,0.335844 -0.36619,0.23495 -0.55951,0.415219 -0.19332,0.18027 -0.43039,0.477309 -0.23706,0.297391 -0.45155,0.709789 -0.21449,0.412397 -0.33726,0.790222 -0.12312,0.377825 -0.21837,1.013178 -0.0949,0.635352 -0.0571,1.220258 0.0377,0.585258 0.12594,0.913694 0.0885,0.328436 0.22543,0.604309 0.13688,0.275519 0.31573,0.494241 0.17886,0.219075 0.32668,0.338667 0.14746,0.119239 0.27164,0.191206 0.12382,0.07161 0.25541,0.129469 0.13158,0.0575 0.68368,0.153106 0.55174,0.09596 1.31269,-0.01235 0.76058,-0.108302 2.56081,-0.710494"
       style="stroke-width:1.80058;stroke-dasharray:none" />
  </g>
</svg>
