<?xml version="1.0" encoding="UTF-8" standalone="no"?>
<svg
   width="1008.625pt"
   height="564.21899pt"
   version="1.1"
   viewBox="-263.732 482.637 1008.625 564.219"
   id="svg1"
   sodipodi:docname="Drawing 10.svg"
   inkscape:export-filename="h.svg"
   inkscape:export-xdpi="96"
   inkscape:export-ydpi="96"
   xmlns:inkscape="http://www.inkscape.org/namespaces/inkscape"
   xmlns:sodipodi="http://sodipodi.sourceforge.net/DTD/sodipodi-0.dtd"
   xmlns="http://www.w3.org/2000/svg"
   xmlns:svg="http://www.w3.org/2000/svg">
  <sodipodi:namedview
     id="namedview1"
     pagecolor="#ffffff"
     bordercolor="#000000"
     borderopacity="0.25"
     inkscape:showpageshadow="2"
     inkscape:pageopacity="0.0"
     inkscape:pagecheckerboard="0"
     inkscape:deskcolor="#d1d1d1"
     inkscape:document-units="pt">
    <inkscape:page
       x="0"
       y="0"
       width="1008.625"
       height="564.21899"
       id="page2"
       margin="0"
       bleed="0" />
  </sodipodi:namedview>
  <!--
	Exported with Concepts: Smarter Sketching
	Version: 3531 on iOS 18.1
	https://concepts.app/
	-->
  <title
     id="title1">8CE43FDD-58A7-4676-A8CB-0596A64137B7</title>
  <desc
     id="desc1">Drawing exported from Concepts: Smarter Sketching</desc>
  <defs
     id="defs1" />
  <path
     id="STROKE_1e8f77c1-203f-4dc3-a19f-7817abf21168"
     opacity="1"
     fill="none"
     stroke="#000000"
     stroke-width="2.514"
     stroke-opacity="1"
     stroke-linecap="round"
     stroke-linejoin="round"
     d="m -94.353,972.165 0.877,0.644 q 0.335,0.251 2.52,1.106 2.185,0.854 4.47,1.551 2.286,0.696 4.181,1.154 1.896,0.458 5.934,1.235 4.039,0.776 8.341,1.245 4.302,0.468 9.776,-0.681 l 0.046,-0.408 q -0.097,-0.244 -0.816,-0.942 -0.72,-0.698 -2.204,-1.73 -1.485,-1.033 -2.665,-1.886 -1.181,-0.854 -1.901,-1.643 -0.72,-0.79 -0.903,-1.534 0.326,-0.399 0.339,-0.459 0.013,-0.06 4.132,-0.826 4.119,-0.767 8.691,-1.11 l 0.067,-0.027 1.527,-0.169"
     style="stroke-width:5.028;stroke-dasharray:none" />
</svg>
