<?xml version="1.0" encoding="UTF-8" standalone="no"?>
<!-- Created with Inkscape (http://www.inkscape.org/) -->

<svg
   width="16.04538mm"
   height="11.094792mm"
   viewBox="0 0 16.04538 11.094792"
   version="1.1"
   id="svg1"
   inkscape:version="1.4 (e7c3feb1, 2024-10-09)"
   sodipodi:docname="ik.svg"
   xmlns:inkscape="http://www.inkscape.org/namespaces/inkscape"
   xmlns:sodipodi="http://sodipodi.sourceforge.net/DTD/sodipodi-0.dtd"
   xmlns="http://www.w3.org/2000/svg"
   xmlns:svg="http://www.w3.org/2000/svg">
  <sodipodi:namedview
     id="namedview1"
     pagecolor="#ffffff"
     bordercolor="#000000"
     borderopacity="0.25"
     inkscape:showpageshadow="2"
     inkscape:pageopacity="0.0"
     inkscape:pagecheckerboard="0"
     inkscape:deskcolor="#d1d1d1"
     inkscape:document-units="mm"
     inkscape:zoom="2.6456984"
     inkscape:cx="246.0598"
     inkscape:cy="109.98986"
     inkscape:current-layer="layer1" />
  <defs
     id="defs1" />
  <g
     inkscape:label="Layer 1"
     inkscape:groupmode="layer"
     id="layer1"
     transform="translate(-39.858109,-119.42105)">
    <path
       id="STROKE_4ff8cf68-6d44-4ea9-ab76-f7e91d4e795c"
       opacity="1"
       fill="none"
       stroke="#000000"
       stroke-width="2.553"
       stroke-opacity="1"
       stroke-linecap="round"
       stroke-linejoin="round"
       d="m 42.167739,125.79645 -0.0476,0.0871 q -0.0282,0.0416 -0.25893,0.47555 -0.23072,0.43391 -0.3609,0.70485 -0.13052,0.27093 -0.27622,0.60184 -0.14605,0.33126 -0.44944,1.29434 -0.004,0.0624 -0.0159,0.3048"
       style="stroke-width:1.80128;stroke-dasharray:none" />
    <path
       id="STROKE_ad5bcfe3-4fc6-4e5c-91d4-45bd0b064ae3"
       opacity="1"
       fill="none"
       stroke="#000000"
       stroke-width="2.553"
       stroke-opacity="1"
       stroke-linecap="round"
       stroke-linejoin="round"
       d="m 43.180919,122.05101 q 0.14076,-0.39617 0.15487,-0.46496 0.0141,-0.0691 -0.0522,-0.0871 -0.0483,0.03 -0.18063,0.19156"
       style="stroke-width:1.80128;stroke-dasharray:none" />
    <path
       id="STROKE_5fdf659b-57c7-4d0a-8286-e1ba247a18d0"
       opacity="1"
       fill="none"
       stroke="#000000"
       stroke-width="2.553"
       stroke-opacity="1"
       stroke-linecap="round"
       stroke-linejoin="round"
       d="m 49.947189,125.15299 q -0.0353,-0.006 -0.16651,-0.0674 -0.13123,-0.061 -0.17215,-0.0762 -0.0409,-0.0148 -0.14605,-0.0494 -0.10548,-0.0342 -0.39652,-0.0984 -0.29105,-0.0642 -0.5715,-0.0903 -0.28011,-0.0257 -0.69321,0.002 -0.41311,0.0282 -0.99625,0.21061 -0.58349,0.18273 -0.96696,0.40745 -0.38312,0.22472 -0.62759,0.44944 -0.24448,0.22472 -0.39264,0.43992 -0.14817,0.21519 -0.22084,0.39546 -0.073,0.17992 -0.10372,0.41522 -0.031,0.2353 -0.0113,0.43109 0.0194,0.1958 0.16404,0.54399 0.14464,0.34854 0.38312,0.62441 0.23848,0.27623 0.53305,0.46461 0.29457,0.18803 0.54786,0.28046 0.25329,0.0921 0.53516,0.13511 0.28152,0.0427 0.45368,0.0441 0.1725,0.001 1.50071,-0.22189"
       style="stroke-width:1.80128;stroke-dasharray:none" />
  </g>
</svg>
