<?xml version="1.0" encoding="UTF-8" standalone="no"?>
<!-- Created with Inkscape (http://www.inkscape.org/) -->

<svg
   width="5.6763425mm"
   height="11.678008mm"
   viewBox="0 0 5.6763425 11.678008"
   version="1.1"
   id="svg1"
   inkscape:version="1.4 (e7c3feb1, 2024-10-09)"
   sodipodi:docname="k.svg"
   xmlns:inkscape="http://www.inkscape.org/namespaces/inkscape"
   xmlns:sodipodi="http://sodipodi.sourceforge.net/DTD/sodipodi-0.dtd"
   xmlns="http://www.w3.org/2000/svg"
   xmlns:svg="http://www.w3.org/2000/svg">
  <sodipodi:namedview
     id="namedview1"
     pagecolor="#ffffff"
     bordercolor="#000000"
     borderopacity="0.25"
     inkscape:showpageshadow="2"
     inkscape:pageopacity="0.0"
     inkscape:pagecheckerboard="0"
     inkscape:deskcolor="#d1d1d1"
     inkscape:document-units="mm"
     inkscape:zoom="10.582793"
     inkscape:cx="13.701487"
     inkscape:cy="34.773429"
     inkscape:current-layer="layer1" />
  <defs
     id="defs1" />
  <g
     inkscape:label="Layer 1"
     inkscape:groupmode="layer"
     id="layer1"
     transform="translate(91.727152,-48.9206)">
    <path
       id="STROKE_b8846609-cd6e-457b-9f0a-7b964e899cff"
       opacity="1"
       fill="none"
       stroke="#000000"
       stroke-width="2.279"
       stroke-opacity="1"
       stroke-linecap="round"
       stroke-linejoin="round"
       d="m -87.855635,49.72458 q -0.04259,0.03735 -0.259442,0.22985 -0.03853,0.09067 -0.283267,0.583924 -0.244741,0.493255 -0.415471,0.909703 -0.170732,0.416447 -0.260547,0.652344 -0.09008,0.236327 -0.488975,1.33735 -0.399245,1.101113 -0.693315,1.999103 -0.293732,0.897897 -0.414415,1.353896 -0.121067,0.456078 -0.162811,0.658657 -0.04211,0.202661 -0.06819,0.443389 -0.02598,0.241069 -0.01875,0.355274 0.0071,0.113864 0.03036,0.171919 0.0237,0.05829 0.06213,0.09146 0.07161,-0.0013 0.308786,-0.241976 0.23709,-0.241026 0.53536,-0.685805 0.298613,-0.444869 0.675036,-1.020521 0.375991,-0.575901 0.776075,-1.128675 0.399833,-0.552341 0.834273,-1.051866 0.434778,-0.499618 0.742804,-0.786678 0.0053,-0.01166 0.101205,-0.06802"
       style="stroke-width:1.60796;stroke-dasharray:none" />
    <path
       id="STROKE_b95a96f3-820d-4425-a1e4-e98c9897e938"
       opacity="1"
       fill="none"
       stroke="#000000"
       stroke-width="2.553"
       stroke-opacity="1"
       stroke-linecap="round"
       stroke-linejoin="round"
       d="m -89.08749,58.599397 c 0.14072,0.185323 0.266319,0.331481 0.376797,0.438472 0.110478,0.10699 0.199634,0.18938 0.267467,0.247171 0.06806,0.05773 0.123513,0.100206 0.16636,0.127439 0.04261,0.02729 0.181331,0.122456 0.416154,0.285489"
       style="stroke-width:1.80128;stroke-dasharray:none"
       sodipodi:nodetypes="csccc" />
  </g>
</svg>
