<?xml version="1.0" encoding="UTF-8" standalone="no"?>
<!-- Created with Inkscape (http://www.inkscape.org/) -->

<svg
   width="9.9453602mm"
   height="15.907088mm"
   viewBox="0 0 9.9453602 15.907088"
   version="1.1"
   id="svg1"
   inkscape:version="1.4 (e7c3feb1, 2024-10-09)"
   sodipodi:docname="q.svg"
   xmlns:inkscape="http://www.inkscape.org/namespaces/inkscape"
   xmlns:sodipodi="http://sodipodi.sourceforge.net/DTD/sodipodi-0.dtd"
   xmlns="http://www.w3.org/2000/svg"
   xmlns:svg="http://www.w3.org/2000/svg">
  <sodipodi:namedview
     id="namedview1"
     pagecolor="#ffffff"
     bordercolor="#000000"
     borderopacity="0.25"
     inkscape:showpageshadow="2"
     inkscape:pageopacity="0.0"
     inkscape:pagecheckerboard="0"
     inkscape:deskcolor="#d1d1d1"
     inkscape:document-units="mm"
     inkscape:zoom="0.93539562"
     inkscape:cx="432.43735"
     inkscape:cy="351.72283"
     inkscape:current-layer="layer1" />
  <defs
     id="defs1" />
  <g
     inkscape:label="Layer 1"
     inkscape:groupmode="layer"
     id="layer1"
     transform="translate(9.4545541,-55.492051)">
    <path
       id="STROKE_ac9c2017-961a-4bd2-a8d8-7b57d20deb77"
       opacity="1"
       fill="none"
       stroke="#000000"
       stroke-width="2.191"
       stroke-opacity="1"
       stroke-linecap="round"
       stroke-linejoin="round"
       d="m -1.2000239,56.898568 q -0.0314,-0.01235 -0.456141,-0.167569 -0.424745,-0.155222 -0.825148,-0.264231 -0.400755,-0.108655 -0.785636,-0.157339 -0.384528,-0.04833 -0.714022,-0.0441 -0.329142,0.0046 -0.865717,0.130528 -0.536222,0.126294 -0.806097,0.240947 -0.269875,0.115006 -0.657578,0.353131 -0.388055,0.238478 -0.771525,0.597958 -0.383822,0.359481 -0.5588,0.579614 -0.174977,0.219781 -0.300566,0.413103 -0.125589,0.193322 -0.354542,0.688622 -0.228953,0.4953 -0.314678,0.93592 -0.08572,0.440972 -0.06809,0.801511 0.01729,0.360891 0.0702,0.5461 0.05292,0.185561 0.1143,0.313266 0.06174,0.127706 0.178506,0.280106 0.116416,0.152047 0.281516,0.283281 0.1651,0.13088 0.399345,0.225425 0.233891,0.09455 0.553861,0.126647 0.320322,0.03246 0.532694,0.01058 0.212372,-0.02187 0.534106,-0.113595 0.322086,-0.09172 0.635705,-0.232127 0.31362,-0.140406 1.149703,-0.718962 0.835731,-0.578555 1.252008,-0.955322 0.416278,-0.376414 0.725664,-0.687916 0.309386,-0.31115 0.436739,-0.448028 0.127353,-0.136525 0.430036,-0.481189 0.302683,-0.344311 0.59054995,-0.724958 0.287514,-0.380648 0.511528,-0.800453 -0.01164,-0.0067 -0.170039,0.138642 -0.158397,0.145344 -0.510469,0.612774 -0.35207295,0.467078 -0.91475295,1.382889 -0.562328,0.915459 -0.897467,1.558573 -0.335491,0.643466 -0.661105,1.353255 -0.325614,0.709789 -0.672395,1.610431 -0.34678,0.900994 -0.600075,1.760713 -0.253294,0.860073 -0.366183,1.353609 -0.113242,0.493536 -0.191206,0.915811 -0.07832,0.422275 -0.154516,1.120422 -0.0762,0.6985 -0.07832,1.136297 l 0.06456,0.05327"
       style="stroke-width:1.54587;stroke-dasharray:none" />
  </g>
</svg>
