<?xml version="1.0" encoding="UTF-8" standalone="no"?>
<!-- Created with Inkscape (http://www.inkscape.org/) -->

<svg
   width="6.1602349mm"
   height="7.6806998mm"
   viewBox="0 0 6.1602349 7.6806999"
   version="1.1"
   id="svg1"
   inkscape:version="1.4 (e7c3feb1, 2024-10-09)"
   sodipodi:docname="u.svg"
   xmlns:inkscape="http://www.inkscape.org/namespaces/inkscape"
   xmlns:sodipodi="http://sodipodi.sourceforge.net/DTD/sodipodi-0.dtd"
   xmlns="http://www.w3.org/2000/svg"
   xmlns:svg="http://www.w3.org/2000/svg">
  <sodipodi:namedview
     id="namedview1"
     pagecolor="#ffffff"
     bordercolor="#000000"
     borderopacity="0.25"
     inkscape:showpageshadow="2"
     inkscape:pageopacity="0.0"
     inkscape:pagecheckerboard="0"
     inkscape:deskcolor="#d1d1d1"
     inkscape:document-units="mm"
     inkscape:zoom="0.93539562"
     inkscape:cx="409.45242"
     inkscape:cy="91.939708"
     inkscape:current-layer="layer1" />
  <defs
     id="defs1" />
  <g
     inkscape:label="Layer 1"
     inkscape:groupmode="layer"
     id="layer1"
     transform="translate(3.473111,-124.38771)">
    <path
       id="STROKE_e164e3eb-c659-4409-bb2e-3b452f29320e"
       opacity="1"
       fill="none"
       stroke="#000000"
       stroke-width="2.553"
       stroke-opacity="1"
       stroke-linecap="round"
       stroke-linejoin="round"
       d="m -1.8323724,125.28835 q -0.0406,0.15064 -0.054,0.17886 -0.0138,0.0286 -0.13793,0.39582 -0.12418,0.36689 -0.2159,0.68333 -0.0917,0.31609 -0.15981,0.60325 -0.0684,0.28751 -0.133,0.82303 -0.0646,0.53552 -0.0215,0.89182 0.043,0.35631 0.1143,0.51753 0.0713,0.16086 0.11677,0.21907 0.0452,0.0582 0.11854,0.11289 0.073,0.0547 0.14111,0.0847 0.0681,0.03 0.25541,0.0564 0.18768,0.0261 1.22696,-0.55456 1.03928,-0.58068 1.37513,-0.91864 0.33619,-0.33831 0.55809,-0.59019 0.22155,-0.25189 0.43498,-0.58138 -0.0106,0.0279 -0.0145,0.0473 -0.004,0.0194 -0.15522,0.6163 -0.15169,0.5969 -0.29669,1.19557 -0.14534,0.59831 -0.27305,1.43686 l -0.0607,0.66146"
       style="stroke-width:1.80128;stroke-dasharray:none" />
  </g>
</svg>
